<svg xmlns="http://www.w3.org/2000/svg" viewBox="0 0 760 500" role="img" aria-label="Gráfico de barras: días lectivos con amencer despois das 8:00, 8:30 e 9:00 en Xirona, Madrid e Santiago co horario actual e coa hora de Lisboa" font-family="'Schibsted Grotesk', 'Helvetica Neue', Arial, sans-serif"><rect width="760" height="500" fill="#f3f0e8"/><text x="20" y="32" font-size="20" font-weight="800" fill="#111417">Días lectivos de 2026-27 con amencer despois da hora de entrada</text><rect x="24" y="52" width="18" height="12" fill="#111417"/><text x="50" y="63" font-size="13" fill="#111417">Horario actual</text><rect x="224" y="52" width="18" height="12" fill="#e8a33d"/><text x="250" y="63" font-size="13" fill="#111417">Hora de Lisboa (UTC+0; UTC+1 no verán)</text><text x="20" y="96" font-size="14" font-weight="700" fill="#0d3b66">Entrada ás 8:00</text><line x1="120" x2="704" y1="104" y2="104" stroke="#cfc8b8"/><text x="112" y="127" font-size="13" text-anchor="end" fill="#111417">Xirona</text><rect x="120" y="110" width="140.27450980392157" height="10" fill="#111417"/><text x="266.27450980392155" y="119" font-size="11" fill="#111417">49</text><rect x="120" y="122" width="0" height="10" fill="#e8a33d"/><text x="126" y="131" font-size="11" fill="#111417">0</text><text x="112" y="159" font-size="13" text-anchor="end" fill="#111417">Madrid</text><rect x="120" y="142" width="286.27450980392155" height="10" fill="#111417"/><text x="412.27450980392155" y="151" font-size="11" fill="#111417">100</text><rect x="120" y="154" width="0" height="10" fill="#e8a33d"/><text x="126" y="163" font-size="11" fill="#111417">0</text><text x="112" y="191" font-size="13" text-anchor="end" fill="#111417">Santiago</text><rect x="120" y="174" width="395.05882352941177" height="10" fill="#111417"/><text x="521.0588235294117" y="183" font-size="11" fill="#111417">138</text><rect x="120" y="186" width="62.98039215686275" height="10" fill="#e8a33d"/><text x="188.98039215686276" y="195" font-size="11" fill="#111417">22</text><text x="20" y="220" font-size="14" font-weight="700" fill="#0d3b66">Entrada ás 8:30</text><line x1="120" x2="704" y1="228" y2="228" stroke="#cfc8b8"/><text x="112" y="251" font-size="13" text-anchor="end" fill="#111417">Xirona</text><rect x="120" y="234" width="0" height="10" fill="#111417"/><text x="126" y="243" font-size="11" fill="#111417">0</text><rect x="120" y="246" width="0" height="10" fill="#e8a33d"/><text x="126" y="255" font-size="11" fill="#111417">0</text><text x="112" y="283" font-size="13" text-anchor="end" fill="#111417">Madrid</text><rect x="120" y="266" width="94.47058823529412" height="10" fill="#111417"/><text x="220.47058823529412" y="275" font-size="11" fill="#111417">33</text><rect x="120" y="278" width="0" height="10" fill="#e8a33d"/><text x="126" y="287" font-size="11" fill="#111417">0</text><text x="112" y="315" font-size="13" text-anchor="end" fill="#111417">Santiago</text><rect x="120" y="298" width="231.88235294117646" height="10" fill="#111417"/><text x="357.88235294117646" y="307" font-size="11" fill="#111417">81</text><rect x="120" y="310" width="0" height="10" fill="#e8a33d"/><text x="126" y="319" font-size="11" fill="#111417">0</text><text x="20" y="344" font-size="14" font-weight="700" fill="#0d3b66">Entrada ás 9:00</text><line x1="120" x2="704" y1="352" y2="352" stroke="#cfc8b8"/><text x="112" y="375" font-size="13" text-anchor="end" fill="#111417">Xirona</text><rect x="120" y="358" width="0" height="10" fill="#111417"/><text x="126" y="367" font-size="11" fill="#111417">0</text><rect x="120" y="370" width="0" height="10" fill="#e8a33d"/><text x="126" y="379" font-size="11" fill="#111417">0</text><text x="112" y="407" font-size="13" text-anchor="end" fill="#111417">Madrid</text><rect x="120" y="390" width="0" height="10" fill="#111417"/><text x="126" y="399" font-size="11" fill="#111417">0</text><rect x="120" y="402" width="0" height="10" fill="#e8a33d"/><text x="126" y="411" font-size="11" fill="#111417">0</text><text x="112" y="439" font-size="13" text-anchor="end" fill="#111417">Santiago</text><rect x="120" y="422" width="62.98039215686275" height="10" fill="#111417"/><text x="188.98039215686276" y="431" font-size="11" fill="#111417">22</text><rect x="120" y="434" width="0" height="10" fill="#e8a33d"/><text x="126" y="443" font-size="11" fill="#111417">0</text><text x="20" y="492" font-size="10" fill="#6b6f74">Cálculo propio (método NOAA, ±1-2 min): días de luns a venres entre o 9/9/2026 e o 21/6/2027 (204), sen descontar festivos.</text></svg>